<?xml version="1.0" standalone="no"?>
<!DOCTYPE svg PUBLIC "-//W3C//DTD SVG 20010904//EN"
 "http://www.w3.org/TR/2001/REC-SVG-20010904/DTD/svg10.dtd">
<svg version="1.0" xmlns="http://www.w3.org/2000/svg"
 width="704.000000pt" height="704.000000pt" viewBox="0 0 704.000000 704.000000"
 preserveAspectRatio="xMidYMid meet">
<metadata>
Created by potrace 1.14, written by Peter Selinger 2001-2017
</metadata>
<g transform="translate(0.000000,704.000000) scale(0.100000,-0.100000)"
fill="#000000" stroke="none">
<path d="M80 5400 l0 -1640 1635 817 c899 450 1635 820 1635 823 0 3 -736 373
-1635 823 l-1635 817 0 -1640z"/>
<path d="M3680 3560 l0 -1640 1635 817 c899 450 1635 820 1635 823 0 3 -736
373 -1635 823 l-1635 817 0 -1640z"/>
<path d="M80 1640 l0 -1640 1635 817 c899 450 1635 820 1635 823 0 3 -736 373
-1635 823 l-1635 817 0 -1640z"/>
</g>
</svg>
